<svg width="159" height="159" viewBox="0 0 159 159" fill="none" xmlns="http://www.w3.org/2000/svg">
<path fill-rule="evenodd" clip-rule="evenodd" d="M59.625 14.7141V46.375H27.9641C28.5934 45.152 29.4092 44.0345 30.3822 43.0625L56.3125 17.1322C57.284 16.1568 58.4016 15.3454 59.625 14.7141ZM72.875 13.25V46.375C72.875 49.8891 71.479 53.2593 68.9942 55.7442C66.5093 58.229 63.1391 59.625 59.625 59.625H26.5C22.9859 59.625 19.6157 61.021 17.1308 63.5058C14.646 65.9907 13.25 69.3609 13.25 72.875V119.25C13.25 122.764 14.646 126.134 17.1308 128.619C19.6157 131.104 22.9859 132.5 26.5 132.5C26.5 136.014 27.896 139.384 30.3808 141.869C32.8657 144.354 36.2359 145.75 39.75 145.75H119.25C122.764 145.75 126.134 144.354 128.619 141.869C131.104 139.384 132.5 136.014 132.5 132.5C136.014 132.5 139.384 131.104 141.869 128.619C144.354 126.134 145.75 122.764 145.75 119.25V72.875C145.75 69.3609 144.354 65.9907 141.869 63.5058C139.384 61.021 136.014 59.625 132.5 59.625V26.5C132.5 22.9859 131.104 19.6157 128.619 17.1308C126.134 14.646 122.764 13.25 119.25 13.25H72.875ZM33.125 72.875C31.3679 72.875 29.6828 73.573 28.4404 74.8154C27.198 76.0578 26.5 77.7429 26.5 79.5V112.625C26.5 114.382 27.198 116.067 28.4404 117.31C29.6828 118.552 31.3679 119.25 33.125 119.25C34.8821 119.25 36.5672 118.552 37.8096 117.31C39.052 116.067 39.75 114.382 39.75 112.625V106H43.0625C47.4551 106 51.6679 104.255 54.774 101.149C57.88 98.0429 59.625 93.8301 59.625 89.4375C59.625 85.0449 57.88 80.8321 54.774 77.726C51.6679 74.62 47.4551 72.875 43.0625 72.875H33.125ZM43.0625 92.75H39.75V86.125H43.0625C43.941 86.125 44.7836 86.474 45.4048 87.0952C46.026 87.7164 46.375 88.559 46.375 89.4375C46.375 90.316 46.026 91.1586 45.4048 91.7798C44.7836 92.401 43.941 92.75 43.0625 92.75ZM72.875 72.875C71.1179 72.875 69.4328 73.573 68.1904 74.8154C66.948 76.0578 66.25 77.7429 66.25 79.5V112.625C66.25 114.382 66.948 116.067 68.1904 117.31C69.4328 118.552 71.1179 119.25 72.875 119.25H81.991C86.6016 119.246 91.0222 117.413 94.2818 114.152C97.5414 110.891 99.3732 106.47 99.375 101.859V90.2656C99.3732 85.6539 97.5405 81.2315 94.2795 77.9705C91.0185 74.7095 86.5961 72.8768 81.9844 72.875H72.875ZM79.5 106V86.125H81.9844C83.0831 86.1268 84.1363 86.5645 84.9126 87.342C85.689 88.1196 86.125 89.1735 86.125 90.2723V101.853C86.1259 102.398 86.0192 102.937 85.8111 103.441C85.603 103.944 85.2975 104.402 84.9122 104.787C84.527 105.173 84.0694 105.478 83.5659 105.686C83.0623 105.894 82.5226 106.001 81.9777 106H79.5ZM112.625 72.875C110.868 72.875 109.183 73.573 107.94 74.8154C106.698 76.0578 106 77.7429 106 79.5V112.625C106 114.382 106.698 116.067 107.94 117.31C109.183 118.552 110.868 119.25 112.625 119.25C114.382 119.25 116.067 118.552 117.31 117.31C118.552 116.067 119.25 114.382 119.25 112.625V106H125.875C127.632 106 129.317 105.302 130.56 104.06C131.802 102.817 132.5 101.132 132.5 99.375C132.5 97.6179 131.802 95.9328 130.56 94.6904C129.317 93.448 127.632 92.75 125.875 92.75H119.25V86.125H125.875C127.632 86.125 129.317 85.427 130.56 84.1846C131.802 82.9422 132.5 81.2571 132.5 79.5C132.5 77.7429 131.802 76.0578 130.56 74.8154C129.317 73.573 127.632 72.875 125.875 72.875H112.625Z" fill="#80B8E7"/>
</svg>
