<svg width="586" height="84" viewBox="0 0 586 84" fill="none" xmlns="http://www.w3.org/2000/svg">
<g clip-path="url(#clip0_7_87)">
<mask id="mask0_7_87" style="mask-type:luminance" maskUnits="userSpaceOnUse" x="8" y="12" width="60" height="60">
<path d="M8 12H68V72H8V12Z" fill="white"/>
</mask>
<g mask="url(#mask0_7_87)">
<path d="M20.7 12H23.405V14.6725H25.88V12H28.585V20.09H25.88V17.3825H23.405V20.09H20.7025L20.7 12ZM32.14 14.6825H29.76V12H37.2275V14.6825H34.845V20.09H32.14V14.6825ZM38.4125 12H41.2325L42.9675 14.8425L44.7 12H47.52V20.09H44.8275V16.08L42.9675 18.9575H42.92L41.0575 16.0825V20.09H38.4125V12ZM48.865 12H51.5725V17.4175H55.3725V20.0925H48.865V12Z" fill="black"/>
<path fill-rule="evenodd" clip-rule="evenodd" d="M20.615 67.18L15.5 23.7925H60.5L55.3825 67.175L37.975 72L20.615 67.18ZM30.9575 43.43L30.4725 37.98H50.835L51.31 32.66H24.66L26.095 48.7525H44.5375L43.92 55.6525L37.985 57.2575H37.98L32.055 55.6575L31.675 51.415H26.33L27.075 59.77L37.975 62.795L48.8925 59.77L50.2225 44.86L50.3525 43.4325L30.9575 43.43Z" fill="black"/>
</g>
</g>
<path d="M128.755 12H135.2V14.695H131.45V17.39H135.2V20.085H128.755V12ZM136.488 12H142.935V14.345H139.185V14.8125H142.935V20.2025H136.488V17.7425H140.238V17.2725H136.488V12ZM144.225 12H150.668V14.345H146.918V14.8125H150.668V20.2025H144.225V17.7425H147.975V17.2725H144.225V12Z" fill="black"/>
<path fill-rule="evenodd" clip-rule="evenodd" d="M139.978 72L122.617 67.18L117.5 23.7925H162.5L157.385 67.175L139.978 72ZM127.617 43.4325L128.095 48.7525H146.537L145.92 55.6525L139.985 57.2575H139.98L134.055 55.6575L133.675 51.415H128.333L129.078 59.77L139.978 62.795L150.895 59.77L152.225 44.86L152.355 43.4325L153.315 32.66H126.66L127.145 37.9825H147.485L147 43.4325H127.617Z" fill="black"/>
<g clip-path="url(#clip1_7_87)">
<path d="M219.5 64.5L242 72L264.5 64.5L272 12H212M234.5 19.5V57H223.25L219.5 42L227 49.5V19.5M242 19.5H264.5V27H249.5V34.5H260.75L257 57H242V49.5H249.5V42H242" fill="black"/>
</g>
<path d="M336.5 19.5H344V34.5H336.5C334.511 34.5 332.603 33.7098 331.197 32.3033C329.79 30.8968 329 28.9891 329 27C329 25.0109 329.79 23.1032 331.197 21.6967C332.603 20.2902 334.511 19.5 336.5 19.5Z" fill="#F4511E"/>
<path d="M351.5 34.5H344V19.5H351.5C353.489 19.5 355.397 20.2902 356.803 21.6967C358.21 23.1032 359 25.0109 359 27C359 28.9891 358.21 30.8968 356.803 32.3033C355.397 33.7098 353.489 34.5 351.5 34.5Z" fill="#FF8A65"/>
<path d="M344 42C344 46.1421 347.358 49.5 351.5 49.5C355.642 49.5 359 46.1421 359 42C359 37.8579 355.642 34.5 351.5 34.5C347.358 34.5 344 37.8579 344 42Z" fill="#29B6F6"/>
<path d="M336.5 34.5H344V49.5H336.5C334.511 49.5 332.603 48.7098 331.197 47.3033C329.79 45.8968 329 43.9891 329 42C329 40.0109 329.79 38.1032 331.197 36.6967C332.603 35.2902 334.511 34.5 336.5 34.5Z" fill="#7C4DFF"/>
<path d="M336.5 49.5H344V57C344 58.9891 343.21 60.8968 341.803 62.3033C340.397 63.7098 338.489 64.5 336.5 64.5C334.511 64.5 332.603 63.7098 331.197 62.3033C329.79 60.8968 329 58.9891 329 57C329 55.0109 329.79 53.1032 331.197 51.6967C332.603 50.2902 334.511 49.5 336.5 49.5Z" fill="#00E676"/>
<g clip-path="url(#clip2_7_87)">
<path d="M426.625 12.75H465.375C471.25 12.75 476 17.4998 476 23.3752V60.6248C476 66.5002 471.25 71.25 465.375 71.25H426.625C420.75 71.25 416 66.5002 416 60.6248V23.3752C416 17.4998 420.75 12.75 426.625 12.75Z" fill="#001E36"/>
<path d="M437.5 27.6248C436.75 27.6248 436 27.6248 435.225 27.6502C434.45 27.675 433.725 27.675 433.05 27.7003C432.375 27.7252 431.75 27.7252 431.15 27.75C430.575 27.7748 430.175 27.7748 429.75 27.7748C429.575 27.7748 429.5 27.8747 429.5 28.05V53.775C429.5 54 429.6 54.1003 429.8 54.1003H434.65C434.825 54.075 434.95 53.925 434.925 53.7502V45.7252C435.4 45.7252 435.75 45.7252 436 45.75C436.25 45.7748 436.65 45.7748 437.25 45.7748C439.3 45.7748 441.175 45.5498 442.875 44.925C444.5 44.325 445.9 43.275 446.9 41.8748C447.9 40.4748 448.4 38.6998 448.4 36.5498C448.4 35.4248 448.2 34.35 447.825 33.3C447.428 32.2303 446.805 31.2583 446 30.45C445.049 29.5264 443.905 28.826 442.65 28.3997C441.25 27.8747 439.55 27.6248 437.5 27.6248ZM438.058 32.5491C438.949 32.5659 439.816 32.7216 440.625 33.0497C441.35 33.3248 441.95 33.825 442.375 34.4747C442.774 35.1471 442.973 35.9189 442.95 36.7003C442.95 37.8 442.7 38.6503 442.175 39.2752C441.625 39.9 440.925 40.3753 440.125 40.6003C439.2 40.9003 438.225 41.0498 437.25 41.0498H435.925C435.625 41.0498 435.3 41.025 434.95 41.0002V32.6002C435.125 32.5748 435.475 32.55 435.975 32.5753C436.45 32.55 437.025 32.55 437.675 32.55C437.803 32.5469 437.931 32.5466 438.058 32.5491ZM459.025 33.8255C457.25 33.8255 455.775 34.1002 454.6 34.7002C453.525 35.2003 452.6 36 451.975 36.9998C451.425 37.9252 451.125 38.9498 451.125 40.0252C451.103 40.9096 451.301 41.7855 451.7 42.5752C452.168 43.4159 452.817 44.1418 453.6 44.7C454.7 45.4522 455.893 46.0573 457.15 46.5C458.375 46.9748 459.2 47.3498 459.6 47.6747C460 48 460.2 48.3248 460.2 48.675C460.2 49.125 459.925 49.5502 459.525 49.725C459.075 49.95 458.4 50.0752 457.45 50.0752C456.45 50.0752 455.45 49.95 454.5 49.7002C453.409 49.4565 452.363 49.0432 451.4 48.4753C451.325 48.4252 451.25 48.4003 451.175 48.4505C451.1 48.5002 451.075 48.6 451.075 48.675V53.025C451.05 53.2252 451.175 53.4 451.35 53.4998C452.161 53.8786 453.019 54.1477 453.9 54.3C455.025 54.525 456.15 54.6248 457.3 54.6248C459.1 54.6248 460.6 54.3502 461.825 53.8252C462.95 53.3752 463.925 52.6003 464.625 51.6C465.28 50.6166 465.62 49.4568 465.6 48.2752C465.625 47.3825 465.427 46.4977 465.025 45.7003C464.55 44.85 463.875 44.1502 463.05 43.6252C461.843 42.8672 460.551 42.2545 459.2 41.7998C458.597 41.5502 458.005 41.2749 457.425 40.9748C457.1 40.8 456.8 40.575 456.575 40.2998C456.425 40.0997 456.325 39.8752 456.325 39.6502C456.325 39.4252 456.4 39.1753 456.525 38.9752C456.7 38.7253 456.975 38.55 457.3 38.475C457.775 38.3503 458.3 38.2748 458.8 38.2997C459.75 38.2997 460.675 38.4248 461.6 38.625C462.45 38.7998 463.25 39.075 464 39.4753C464.1 39.525 464.225 39.525 464.45 39.4753C464.489 39.4464 464.521 39.4086 464.543 39.3651C464.564 39.3216 464.575 39.2736 464.575 39.225V35.1502C464.575 35.0498 464.55 34.95 464.525 34.8502C464.475 34.7503 464.375 34.65 464.275 34.6252C463.586 34.3433 462.863 34.1501 462.125 34.05C461.098 33.9005 460.063 33.8258 459.025 33.8255Z" fill="#31A8FF"/>
</g>
<g clip-path="url(#clip3_7_87)">
<path d="M528.641 12.75H567.406C573.266 12.75 578.047 17.4844 578.047 23.3906V60.6563C578.047 66.5156 573.313 71.2969 567.406 71.2969H528.641C522.734 71.25 518 66.5156 518 60.6094V23.3906C518 17.4844 522.734 12.75 528.641 12.75Z" fill="#330000"/>
<path d="M547.016 47.7656H537.688L535.813 53.625C535.766 53.8594 535.578 54 535.344 53.9531H530.656C530.375 53.9531 530.328 53.8125 530.375 53.4844L538.438 30.3281C538.531 30.0937 538.578 29.8125 538.672 29.4844C538.766 28.9687 538.813 28.4063 538.813 27.8438C538.766 27.7031 538.906 27.6094 539 27.5625H545.469C545.656 27.5625 545.75 27.6562 545.797 27.75L554.938 53.4844C555.031 53.7656 554.938 53.9063 554.703 53.9063H549.453C549.266 53.9531 549.125 53.8125 549.031 53.625L547.016 47.7656ZM539.141 42.6563H545.469C545.328 42.1406 545.141 41.4844 544.906 40.875C544.672 40.2187 544.438 39.4688 544.25 38.7188C544.016 37.9219 543.781 37.1719 543.547 36.4219C543.313 35.625 543.078 34.9219 542.891 34.2188C542.703 33.5156 542.516 32.8594 542.328 32.25H542.281C542.047 33.3281 541.766 34.4062 541.438 35.4844C541.063 36.7031 540.688 37.9219 540.266 39.1875C539.891 40.4531 539.516 41.625 539.141 42.6563ZM560.516 32.0156C559.672 32.0625 558.875 31.7344 558.313 31.125C557.75 30.5156 557.422 29.6719 557.469 28.8281C557.422 27.9844 557.75 27.1875 558.359 26.625C558.969 26.0625 559.766 25.7344 560.563 25.7344C561.547 25.7344 562.297 26.0156 562.859 26.625C563.422 27.2344 563.703 28.0313 563.703 28.8281C563.75 29.6719 563.422 30.5156 562.813 31.125C562.203 31.7344 561.359 32.0625 560.516 32.0156ZM557.703 53.7188V34.4531C557.703 34.2188 557.797 34.125 558.031 34.125H563C563.234 34.125 563.328 34.2656 563.328 34.4531V53.7188C563.328 54 563.234 54.1406 563 54.1406H558.078C557.844 54.0938 557.703 53.9531 557.703 53.7188Z" fill="#FF9A00"/>
</g>
<defs>
<clipPath id="clip0_7_87">
<rect width="60" height="60" fill="white" transform="translate(8 12)"/>
</clipPath>
<clipPath id="clip1_7_87">
<rect width="60" height="60" fill="white" transform="translate(212 12)"/>
</clipPath>
<clipPath id="clip2_7_87">
<rect width="60" height="60" fill="white" transform="translate(416 12)"/>
</clipPath>
<clipPath id="clip3_7_87">
<rect width="60" height="60" fill="white" transform="translate(518 12)"/>
</clipPath>
</defs>
</svg>
